<svg width="16" height="16" viewBox="0 0 16 16" fill="none" xmlns="http://www.w3.org/2000/svg">
<g clip-path="url(#clip0)">
<path d="M6.5 14C6.5 14.829 7.171 15.5 8 15.5C8.829 15.5 9.5 14.829 9.5 14C9.5 13.171 8.829 12.5 8 12.5C7.171 12.5 6.5 13.171 6.5 14ZM6.5 8C6.5 8.829 7.171 9.5 8 9.5C8.829 9.5 9.5 8.829 9.5 8C9.5 7.171 8.829 6.5 8 6.5C7.171 6.5 6.5 7.171 6.5 8ZM6.5 2C6.5 2.829 7.171 3.5 8 3.5C8.829 3.5 9.5 2.829 9.5 2C9.5 1.171 8.829 0.5 8 0.5C7.171 0.5 6.5 1.171 6.5 2Z" fill="#106EBE"/>
</g>
<defs>
<clipPath id="clip0">
<rect y="16" width="16" height="16" transform="rotate(-90 0 16)" fill="white"/>
</clipPath>
</defs>
</svg>
